# xmcd CD database file
#
# Track frame offsets:
#	150
#	21425
#	41482
#	67852
#	82495
#	97812
#	115265
#	134410
#	144840
#	169572
#
# Disc length: 2439 seconds
#
# Revision: 0
# Processed by: cddbd v1.5.2PL0 Copyright (c) Steve Scherf et al.
# Submitted via: CDex 1.70beta2
#
DISCID=8009850a
DTITLE=Denny Brown - Got The Whole Night
DYEAR=1995
DGENRE=Blues
TTITLE0=Guess That It's Time
TTITLE1=Fourth Of July
TTITLE2=No Chance
TTITLE3=Whatever Happened
TTITLE4=No Middle Ground
TTITLE5=Take Me Back
TTITLE6=Got The Whole Night
TTITLE7=Let's Play One Song
TTITLE8=If Anyone Asks
TTITLE9=Cross Over The Line
EXTD=YEAR: 1995
EXTT0=
EXTT1=
EXTT2=
EXTT3=
EXTT4=
EXTT5=
EXTT6=
EXTT7=
EXTT8=
EXTT9=
PLAYORDER=
